
<svg width="20" height="18" viewBox="0 0 20 18" fill="none" xmlns="http://www.w3.org/2000/svg"><path d="M3.75 12.958c.083.006.168.006.24.005.078.116.17.278.273.484.158.32.32.699.48 1.084l.174.428c.095.234.187.461.27.657.068.16.134.308.196.434a1.595 1.595 0 0 0 1.68.945c.622-.081 1.215-.307 1.601-.81.397-.518.412-1.114.334-1.562a5.055 5.055 0 0 0-.199-.65 47.568 47.568 0 0 0-.723-1.87c1.608-.21 3.076-.102 4.409.759.64.415 1.322.632 1.884.28.268-.166.436-.425.54-.694a3.07 3.07 0 0 0 .179-.908c.08-1.287-.326-3.196-.926-5.002-.603-1.811-1.434-3.62-2.268-4.699a4.1 4.1 0 0 0-.663-.696c-.226-.18-.49-.33-.782-.375a1.116 1.116 0 0 0-.875.233c-.243.19-.425.471-.565.8A.481.481 0 0 0 9 1.822c-.599 1.602-1.782 2.67-3.289 3.569a.5.5 0 0 0-.232.538L2.483 6.997c-.48.17-.795.596-.863 1.069l-.242.086C.7 8.393.349 9.143.562 9.82l.647 2.054c.217.69.949 1.079 1.642.832a.49.49 0 0 1 .13-.028l.054-.481-.055.481.009.002a1.466 1.466 0 0 1 .16.075l.235-.441-.236.44.016.01c.058.03.163.087.282.134.112.043.23.055.304.06z" stroke="#373737" stroke-linecap="round" stroke-linejoin="round"/><path d="M7.618 10.024a.5.5 0 0 0-.894.447l.894-.447zm.106 2.447a.5.5 0 0 0 .894-.447l-.894.447zm-1-2l1 2 .894-.447-1-2-.894.447zm7.613-7.249a.5.5 0 0 0 .86.512l-.86-.512zm1.593-.719a.5.5 0 0 0-.86-.512l.86.512zm1.767 5.918a.5.5 0 1 0 0-1v1zm-1.44-1a.5.5 0 0 0 0 1v-1zm1.014-2.254a.5.5 0 0 0-.542-.84l.542.84zm-1.84-.002a.5.5 0 1 0 .543.84l-.543-.84zm-.235-1.431l.734-1.23-.86-.513-.733 1.231.86.512zm2.501 3.687h-1.44v1h1.44v-1zm-.968-3.094l-1.298.838.543.84 1.297-.838-.542-.84z" fill="#373737"/><path d="M14.17 13.247c-5-1.5-6.5-10-4.5-12" stroke="#373737" stroke-width=".7" stroke-linecap="round"/></svg>