<svg width="20" height="18" viewBox="0 0 20 18" fill="none" xmlns="http://www.w3.org/2000/svg"><mask id="a" fill="#fff"><path d="M2.6 0h14.8c.88 0 1.6.72 1.6 1.6v9.6c0 .88-.72 1.6-1.6 1.6H4.2L1 16l.008-14.4C1.008.72 1.72 0 2.6 0z"/></mask><path d="M5.2 7.5a.5.5 0 0 0 0 1v-1zm5.2 1a.5.5 0 1 0 0-1v1zM5.2 4.62a.5.5 0 0 0 0 1v-1zm9.6 1a.5.5 0 1 0 0-1v1zM5.2 8.5h5.2v-1H5.2v1zm0-2.88H9v-1H5.2v1zm3.8 0h5.8v-1H9v1zM1.008 1.6h1-1zM1 16H0l-.001 2.416 1.708-1.709L1 16zm3.2-3.2v-1h-.414l-.293.293.707.707zM17.4-1H2.6v2h14.8v-2zM2.6-1A2.598 2.598 0 0 0 .008 1.6h2c0-.334.27-.6.592-.6v-2zM.008 1.6L0 16h2l.008-14.4h-2zm1.7 15.107l3.2-3.2-1.415-1.414-3.2 3.2 1.414 1.414zM4.2 13.8h13.2v-2H4.2v2zm13.2 0c1.432 0 2.6-1.168 2.6-2.6h-2c0 .328-.272.6-.6.6v2zm2.6-2.6V1.6h-2v9.6h2zm0-9.6C20 .168 18.832-1 17.4-1v2c.328 0 .6.272.6.6h2z" fill="#373737" mask="url(#a)"/></svg>