<svg id="Layer_1" data-name="Layer 1" xmlns="http://www.w3.org/2000/svg" viewBox="0 0 122.88 122.88"><defs><style>.cls-1{fill-rule:evenodd;}</style></defs><title>mobile-phone-round</title><path class="cls-1" d="M49,28.12H73.85a7.7,7.7,0,0,1,7.7,7.7V87.06a7.7,7.7,0,0,1-7.7,7.7H49a7.7,7.7,0,0,1-7.7-7.7V35.81A7.68,7.68,0,0,1,49,28.12ZM61.44,0A61.46,61.46,0,1,1,18,18,61.23,61.23,0,0,1,61.44,0Zm38,23.45a53.72,53.72,0,1,0,15.74,38,53.56,53.56,0,0,0-15.74-38ZM44.75,84.07H78.12V36.52H44.75V84.07Zm16.68,2.41a3.17,3.17,0,1,1-3.17,3.16,3.16,3.16,0,0,1,3.17-3.16Z"/></svg>