<?xml version="1.0" standalone="no"?>
<!DOCTYPE svg PUBLIC "-//W3C//DTD SVG 20010904//EN"
 "http://www.w3.org/TR/2001/REC-SVG-20010904/DTD/svg10.dtd">
<svg version="1.0" xmlns="http://www.w3.org/2000/svg"
 width="1280.000000pt" height="950.000000pt" viewBox="0 0 1280.000000 950.000000"
 preserveAspectRatio="xMidYMid meet">
<metadata>
Created by potrace 1.15, written by Peter Selinger 2001-2017
</metadata>
<g transform="translate(0.000000,950.000000) scale(0.100000,-0.100000)"
fill="#000000" stroke="none">
<path d="M8881 9483 c-32 -16 -82 -74 -102 -118 -5 -11 -13 -27 -18 -35 -15
-26 -45 -163 -46 -215 -1 -27 -7 -612 -14 -1300 -6 -687 -14 -1265 -17 -1282
-4 -27 -9 -33 -30 -33 -14 0 -34 5 -46 11 -11 6 -45 15 -77 20 -118 19 -225
47 -236 63 -7 9 -15 87 -21 193 -4 98 -9 205 -11 238 -2 33 -7 157 -13 275
-11 253 -16 323 -25 368 -4 18 -3 32 2 32 6 0 6 18 1 48 -5 26 -13 159 -18
295 -9 258 -10 267 -35 537 l-15 165 37 29 c21 16 66 58 100 92 78 78 88 116
49 173 -15 21 -32 38 -39 39 -6 0 -43 8 -82 16 -38 8 -158 27 -265 41 -107 14
-242 33 -300 41 -58 9 -154 22 -215 29 -215 27 -351 45 -400 55 -48 9 -1423 6
-1864 -4 -213 -5 -247 -8 -366 -38 -44 -11 -107 -24 -140 -29 -33 -4 -94 -13
-135 -19 -265 -38 -629 -60 -1060 -65 -569 -7 -755 -21 -921 -69 -109 -33
-195 -102 -241 -196 -26 -53 -48 -161 -55 -274 -7 -124 -3 -130 93 -140 36 -4
82 -13 100 -21 40 -17 42 -33 19 -178 -8 -50 -21 -162 -30 -247 -17 -170 -32
-307 -45 -415 -5 -38 -14 -142 -20 -230 -7 -88 -18 -212 -26 -275 -8 -63 -19
-158 -23 -211 -9 -95 -17 -125 -44 -147 -18 -16 -258 -24 -373 -13 -74 6 -107
15 -181 49 -68 32 -102 42 -141 42 -71 0 -183 -25 -247 -56 -60 -28 -175 -134
-175 -161 0 -10 -37 -52 -82 -94 l-82 -77 -2 -128 c-3 -168 4 -193 74 -266 32
-34 52 -62 46 -67 -5 -4 -47 -21 -94 -37 -96 -33 -182 -96 -226 -166 -15 -23
-73 -87 -129 -144 -88 -87 -112 -118 -161 -210 -31 -59 -77 -127 -101 -151
-64 -65 -83 -111 -94 -220 -7 -73 -15 -108 -38 -153 -47 -92 -62 -156 -71
-291 -5 -79 -13 -138 -22 -155 -9 -16 -38 -72 -66 -124 -75 -141 -86 -236 -52
-457 10 -69 9 -76 -19 -160 -34 -100 -51 -209 -50 -321 0 -66 4 -84 29 -127
85 -148 99 -187 81 -223 -27 -51 -36 -116 -36 -252 0 -142 1 -146 29 -195 16
-27 46 -71 66 -96 31 -40 40 -63 59 -155 15 -75 35 -136 64 -194 32 -64 42
-98 43 -139 3 -77 13 -136 30 -178 17 -39 113 -138 144 -148 18 -6 42 -67 70
-180 7 -27 17 -54 21 -60 5 -5 9 -16 9 -25 1 -33 87 -126 162 -176 43 -28 103
-72 135 -98 31 -26 86 -61 122 -78 38 -18 88 -53 120 -84 31 -30 63 -57 73
-60 10 -3 18 -10 18 -15 0 -5 6 -9 14 -9 8 0 21 -6 28 -13 7 -7 33 -18 58 -25
229 -68 198 -63 470 -69 239 -5 266 -4 425 20 94 14 202 25 240 24 117 -2 236
44 444 173 34 22 65 40 67 40 7 0 171 115 212 149 116 96 237 212 279 264 46
59 122 215 123 252 0 11 13 57 29 101 32 89 46 164 61 324 11 112 28 152 68
158 32 5 45 27 68 120 13 47 29 92 38 100 17 17 180 23 296 12 36 -4 97 -3
136 1 59 6 710 15 822 10 l32 -1 0 -107 c0 -122 9 -215 20 -208 10 6 20 -47
20 -111 0 -31 -4 -54 -11 -54 -5 0 -17 -16 -25 -35 -8 -19 -19 -35 -24 -35 -6
0 -10 -42 -10 -103 l0 -103 55 -69 c31 -38 58 -80 61 -92 3 -12 -2 -57 -11
-100 -22 -104 -31 -188 -18 -180 6 4 13 -9 17 -31 8 -55 56 -120 118 -161 73
-49 88 -83 88 -199 0 -87 2 -95 26 -117 28 -26 105 -65 129 -65 26 0 71 -27
99 -60 22 -27 26 -41 26 -99 0 -52 5 -78 24 -113 45 -85 86 -114 238 -168 98
-35 121 -50 154 -100 15 -22 32 -40 38 -40 6 0 16 -8 23 -18 6 -11 28 -27 48
-36 32 -16 46 -16 128 -6 51 7 99 16 109 21 11 5 20 3 27 -5 7 -8 26 -16 44
-19 18 -2 68 -14 112 -26 85 -23 129 -22 176 6 24 14 28 14 66 -10 94 -60 232
-58 404 4 128 46 135 49 175 70 21 10 44 19 50 19 18 0 187 71 205 87 8 7 21
13 28 13 6 0 34 11 61 25 59 30 103 85 119 151 22 85 35 101 129 148 104 53
157 97 207 172 43 65 65 126 71 204 7 89 13 115 32 131 65 59 158 172 178 218
29 64 32 171 8 241 -17 49 -14 118 7 130 18 12 71 164 91 265 16 75 15 75 45
75 15 1 46 8 68 16 59 23 266 63 380 74 55 5 120 13 145 19 25 5 90 11 145 13
l100 3 3 -51 c2 -36 -6 -76 -28 -141 -25 -76 -30 -106 -30 -187 0 -96 0 -97
33 -129 43 -44 75 -63 119 -71 43 -8 75 -51 85 -113 3 -21 12 -50 19 -65 8
-15 14 -40 14 -56 0 -16 7 -35 15 -42 8 -7 15 -17 15 -22 0 -32 94 -76 140
-66 8 2 14 -1 15 -7 4 -40 18 -85 30 -95 8 -7 15 -22 15 -34 0 -28 49 -106 85
-134 33 -26 74 -28 132 -6 45 17 93 13 93 -9 0 -13 27 -50 88 -118 58 -66 127
-75 186 -24 43 37 97 34 170 -10 32 -19 61 -35 65 -35 3 0 24 -12 45 -26 33
-23 44 -25 91 -19 30 3 59 13 66 21 17 21 57 17 105 -11 43 -25 45 -25 129
-13 47 6 85 15 85 19 0 9 57 29 85 29 12 0 34 9 48 20 14 11 35 20 47 20 12 0
34 6 48 14 15 8 47 21 72 29 46 15 171 65 247 99 23 11 47 26 53 34 7 7 20 14
30 14 20 0 44 24 60 60 34 78 75 134 151 211 98 97 108 121 78 188 -10 24 -19
54 -19 68 0 33 31 90 79 145 23 25 41 51 41 56 0 6 9 14 20 17 11 3 20 10 20
15 0 4 20 30 43 56 43 48 48 60 47 118 -1 30 -22 76 -52 111 -34 40 -33 76 3
123 19 23 37 42 41 42 17 0 83 53 109 87 23 31 27 45 23 73 -10 57 -33 123
-59 161 -59 91 -68 189 -25 278 48 96 36 155 -49 245 -125 131 -117 119 -120
182 -1 32 -5 62 -7 65 -2 4 3 23 11 43 8 19 15 56 15 81 0 95 -46 150 -172
207 -16 7 -28 16 -28 21 0 4 -12 18 -26 30 -25 21 -26 29 -30 131 -2 59 -9
117 -15 128 -16 30 -71 48 -149 48 -39 0 -81 5 -93 11 -32 17 -77 61 -77 76 0
7 -3 13 -7 13 -5 0 -9 25 -11 56 -3 70 -15 92 -57 110 -26 10 -172 33 -218 34
-4 0 -36 27 -71 59 -70 65 -113 80 -202 67 -35 -4 -58 0 -108 21 -55 22 -65
30 -70 56 -3 16 -6 156 -6 311 0 154 -5 337 -10 406 -5 69 -14 199 -20 290 -6
91 -18 206 -28 255 -16 82 -21 94 -59 133 -23 23 -50 42 -59 42 -9 0 -31 9
-48 19 -17 10 -47 22 -66 26 -19 4 -50 16 -68 26 -19 9 -86 34 -150 54 -64 20
-130 43 -147 50 -16 8 -57 21 -90 30 -33 9 -94 27 -135 40 -69 22 -107 33
-245 70 -27 8 -75 21 -105 30 -30 9 -102 29 -160 45 -58 15 -130 35 -160 45
-30 9 -80 21 -110 26 -30 5 -62 14 -72 19 -9 5 -40 12 -69 16 -87 12 -95 27
-104 180 -4 71 -5 277 -1 459 3 181 9 762 12 1290 6 942 6 960 -13 985 -11 14
-23 37 -27 52 -3 16 -25 55 -48 89 -56 81 -97 96 -167 62z m-1088 -971 c9 -8
17 -21 17 -27 0 -7 9 -23 19 -37 43 -54 60 -150 72 -408 25 -528 37 -861 42
-1133 l4 -227 -23 -6 c-28 -7 -178 11 -249 30 -56 15 -202 45 -285 58 -101 16
-154 26 -247 47 -116 25 -214 28 -327 7 -49 -9 -106 -16 -127 -16 -21 0 -49
-4 -62 -9 -42 -16 -55 4 -61 94 -5 93 -28 220 -37 211 -4 -4 -18 17 -32 46
-14 29 -43 69 -64 89 -54 52 -167 116 -216 124 -127 20 -136 33 -148 234 -5
80 -13 169 -19 196 -14 78 -30 259 -30 356 l0 88 54 11 c60 12 66 21 66 102 0
36 5 50 19 57 14 8 287 30 361 29 8 0 103 7 210 15 107 9 263 19 345 22 83 3
179 11 215 17 36 5 106 14 155 19 155 14 257 28 263 34 9 9 65 -6 85 -23z
m-4657 -93 c21 -23 22 -85 3 -209 -5 -36 -14 -103 -19 -150 -6 -47 -17 -130
-25 -185 -9 -55 -19 -138 -25 -185 -5 -47 -16 -132 -24 -190 -8 -58 -22 -166
-31 -240 -9 -74 -20 -148 -25 -165 -5 -16 -16 -79 -25 -140 -34 -237 -55 -322
-86 -340 -19 -12 -69 16 -76 42 -8 34 4 181 27 328 10 66 37 242 60 390 23
149 49 320 57 380 8 61 19 112 23 115 4 3 10 32 12 65 5 60 10 97 51 334 28
159 57 201 103 150z m1112 -29 c206 -7 288 -13 299 -22 14 -11 15 -40 9 -233
-7 -251 -13 -367 -21 -445 -7 -72 -21 -389 -19 -460 0 -30 4 -65 9 -77 6 -18
4 -23 -9 -23 -12 0 -16 -11 -17 -47 0 -27 -6 -64 -13 -83 l-13 -34 -149 -1
c-156 -1 -202 -10 -249 -47 -26 -21 -27 -22 -20 -101 4 -44 11 -94 16 -111 7
-25 5 -34 -14 -53 -21 -22 -118 -53 -163 -53 -13 0 -67 -9 -121 -19 -98 -19
-175 -26 -245 -23 l-38 2 0 88 c0 48 9 182 20 297 11 116 27 300 35 410 9 110
20 238 25 285 5 47 14 146 20 220 34 437 40 469 87 512 36 33 66 38 178 33 61
-3 238 -10 393 -15z m1240 -33 c9 -8 44 -22 77 -31 33 -8 61 -20 63 -26 2 -5
10 -10 17 -10 18 0 25 -157 28 -622 2 -367 1 -377 -18 -392 -11 -9 -36 -21
-55 -27 -101 -35 -290 -183 -290 -228 0 -6 -7 -8 -15 -5 -8 4 -15 1 -15 -5 0
-6 -15 -42 -34 -81 -19 -38 -32 -70 -29 -70 3 0 1 -6 -5 -12 -5 -7 -13 -33
-17 -58 -12 -72 -22 -81 -31 -25 -7 49 2 276 33 790 8 143 17 307 19 365 6
163 21 320 32 333 5 7 12 28 16 48 4 21 12 42 20 48 37 31 172 37 204 8z
m1677 -1803 c72 -13 159 -31 195 -39 36 -9 88 -20 115 -24 66 -12 435 -85 555
-111 52 -12 129 -28 170 -37 41 -9 79 -20 85 -24 5 -5 26 -9 47 -9 20 0 57 -6
80 -14 24 -8 61 -17 83 -20 22 -4 76 -16 120 -26 44 -10 141 -33 215 -50 74
-17 146 -35 160 -40 14 -6 52 -14 85 -19 55 -9 216 -49 585 -147 169 -45 296
-82 335 -99 17 -7 71 -25 120 -40 94 -28 219 -71 395 -136 58 -21 119 -41 135
-45 43 -8 80 -38 72 -57 -5 -14 -44 -16 -329 -16 -307 -1 -1142 -17 -1238 -25
-116 -9 -230 -36 -303 -70 -42 -20 -82 -42 -89 -49 -7 -7 -25 -20 -41 -30 -15
-10 -41 -37 -57 -60 -16 -23 -34 -48 -40 -54 -10 -12 -31 -96 -34 -138 -1 -11
-6 -29 -12 -40 -6 -11 -15 -81 -18 -155 -5 -78 -14 -149 -22 -169 -11 -27 -12
-37 -2 -49 8 -9 9 -17 3 -19 -14 -4 -10 -172 4 -186 15 -15 14 -27 -1 -22 -10
4 -13 -15 -12 -78 0 -46 3 -88 7 -93 3 -6 2 -16 -2 -23 -5 -7 -4 -31 0 -54 5
-23 13 -75 18 -115 7 -55 15 -80 32 -98 41 -43 220 -149 319 -189 87 -35 132
-46 305 -74 77 -12 447 -6 503 8 24 6 47 9 52 6 11 -7 347 -6 776 2 l352 6 5
-29 c5 -26 21 -215 22 -254 0 -25 -95 -48 -243 -60 -150 -12 -182 -17 -182
-32 0 -5 -6 -5 -17 0 -9 6 -24 6 -32 2 -13 -8 -134 -17 -436 -35 -526 -31
-766 -23 -890 30 -93 40 -244 112 -267 127 -14 10 -31 18 -37 18 -5 0 -23 12
-38 26 -37 35 -125 93 -173 114 -14 6 -32 17 -40 24 -22 18 -96 44 -208 73
-74 18 -134 26 -252 30 -128 4 -160 9 -187 24 -17 11 -34 26 -37 34 -3 8 -11
15 -19 15 -7 0 -28 11 -47 25 -19 14 -41 25 -51 25 -9 0 -30 7 -45 15 -16 8
-41 15 -55 15 -27 0 -121 30 -177 56 -18 8 -42 30 -54 48 -13 19 -43 43 -72
57 -50 23 -55 23 -326 21 -248 -2 -282 0 -348 18 -89 24 -223 27 -266 5 -15
-8 -36 -15 -45 -15 -9 0 -27 -7 -41 -14 -77 -43 -141 -69 -195 -81 -16 -3 -43
-12 -60 -20 -69 -31 -112 -35 -605 -55 -409 -16 -506 -16 -524 0 -15 12 -15
15 3 34 11 12 24 33 29 47 13 34 67 49 178 49 155 0 642 28 884 52 143 13 156
21 164 90 17 158 27 382 22 528 -3 91 -7 219 -10 285 -2 66 -6 140 -10 165 -4
25 -11 173 -17 330 -5 157 -12 312 -14 345 -3 33 2 119 10 191 26 237 70 292
260 330 44 9 85 21 92 26 6 5 17 8 25 7 7 -2 38 2 68 9 30 6 82 16 115 23 33
6 89 17 125 24 77 15 122 12 295 -21z m-4614 -239 c46 -9 95 -20 109 -24 14
-5 59 -19 100 -31 41 -12 80 -26 85 -30 6 -4 28 -13 50 -20 104 -34 202 -137
367 -385 61 -92 198 -344 228 -420 13 -33 29 -67 36 -75 6 -8 17 -33 24 -55 7
-22 25 -68 41 -103 28 -61 42 -94 74 -184 9 -24 20 -52 25 -63 18 -39 60 -152
60 -161 0 -5 14 -43 31 -84 53 -126 79 -202 94 -267 8 -34 19 -71 24 -82 12
-21 15 -161 5 -198 -4 -13 -14 -23 -23 -23 -10 0 -21 -3 -25 -7 -4 -5 -61 -6
-126 -5 -77 3 -132 0 -156 -8 -36 -12 -39 -12 -66 19 -15 17 -30 43 -33 58 -3
16 -15 46 -27 69 -11 22 -21 55 -22 72 0 18 -6 34 -12 36 -5 2 -23 35 -38 72
-73 181 -166 395 -176 409 -5 6 -11 27 -15 47 -4 21 -13 42 -21 49 -8 6 -14
16 -14 22 0 5 -14 40 -31 76 -17 36 -39 86 -49 111 -26 63 -158 314 -213 405
-10 17 -36 62 -58 100 -87 154 -172 250 -309 348 -105 74 -139 97 -145 97 -3
0 -21 11 -38 24 -33 24 -164 94 -182 97 -5 1 -22 10 -37 20 -14 10 -30 19 -36
19 -5 0 -35 12 -66 26 -112 51 -70 63 235 63 181 1 269 -3 330 -14z m1447
-101 c101 -20 205 -71 268 -131 84 -79 148 -141 167 -163 17 -20 27 -78 42
-239 3 -35 7 -66 9 -70 2 -3 10 -69 16 -146 7 -77 14 -151 16 -165 8 -56 13
-113 24 -265 6 -88 16 -167 20 -177 5 -9 12 -69 16 -134 9 -145 8 -146 -105
-138 -96 8 -115 20 -130 81 -7 26 -17 53 -22 59 -5 6 -13 31 -19 55 -5 24 -20
76 -34 114 -14 39 -47 133 -74 210 -77 218 -95 265 -118 307 -7 14 -14 32 -14
39 0 7 -9 31 -19 53 -11 23 -38 81 -60 130 -50 108 -80 150 -129 176 -20 11
-46 26 -57 33 -160 101 -204 142 -294 276 -48 72 -45 86 20 101 65 15 394 11
477 -6z m-2238 -552 c0 -4 -16 -24 -36 -43 -50 -47 -64 -79 -64 -143 0 -65 25
-102 89 -131 33 -14 43 -15 56 -5 8 7 15 19 15 27 0 19 35 87 53 101 8 7 66
23 128 36 63 14 133 29 156 34 49 11 99 -8 116 -45 8 -19 7 -26 -9 -38 -10 -8
-28 -15 -39 -15 -11 0 -29 -6 -40 -14 -11 -7 -49 -21 -85 -30 -71 -18 -102
-42 -131 -98 -29 -56 -25 -108 10 -142 37 -35 59 -29 105 27 42 51 88 70 229
93 96 15 107 15 160 0 64 -18 85 -42 97 -107 7 -36 5 -41 -19 -53 -15 -8 -75
-15 -146 -18 -156 -6 -206 -30 -205 -100 1 -31 48 -98 85 -119 27 -16 41 -16
140 -7 88 9 128 9 190 -2 72 -12 83 -17 117 -52 46 -50 66 -94 49 -111 -8 -8
-70 -14 -184 -17 -95 -3 -178 -9 -184 -13 -30 -19 1 -181 43 -228 9 -10 30
-21 48 -24 282 -55 402 -97 455 -162 26 -31 31 -46 31 -90 0 -70 -15 -77 -100
-47 -186 65 -221 76 -285 84 -117 16 -144 13 -154 -12 -5 -14 -3 -64 4 -121
16 -121 23 -130 159 -195 96 -46 155 -82 308 -187 54 -37 69 -54 78 -83 23
-85 7 -132 -45 -132 -59 0 -247 49 -330 86 -45 20 -119 34 -129 24 -4 -4 -6
-66 -5 -137 5 -149 11 -161 104 -193 29 -10 83 -35 121 -56 38 -20 89 -48 114
-61 93 -48 129 -108 96 -158 -14 -22 -24 -25 -71 -25 -30 0 -74 6 -97 14 -94
32 -205 56 -255 56 -47 0 -55 -3 -65 -25 -9 -19 -8 -38 0 -76 7 -28 12 -63 12
-79 0 -48 10 -61 94 -116 45 -29 88 -59 97 -66 39 -32 50 -158 13 -158 -8 0
-47 6 -87 14 -40 8 -100 17 -133 20 -72 6 -87 -4 -110 -80 -17 -58 -9 -88 52
-184 54 -87 73 -127 85 -178 20 -90 -39 -112 -120 -44 -89 75 -118 79 -149 24
-30 -53 -38 -129 -18 -167 9 -16 16 -40 16 -53 0 -12 7 -33 15 -46 8 -12 16
-50 17 -85 4 -89 -11 -97 -85 -42 -65 47 -81 49 -121 16 -29 -23 -30 -24 -17
-72 28 -108 39 -165 43 -220 3 -52 1 -58 -21 -70 -34 -16 -74 8 -107 64 -31
54 -36 56 -77 40 -44 -19 -73 -56 -92 -123 -8 -30 -20 -54 -26 -54 -6 0 -28
13 -48 28 -70 55 -100 45 -115 -40 -4 -20 -14 -46 -24 -57 -17 -21 -17 -21
-59 34 -49 63 -76 73 -147 56 -94 -23 -129 -24 -183 -3 -52 20 -176 107 -226
160 -34 36 -83 153 -103 247 -8 38 -21 76 -29 85 -8 9 -15 20 -15 23 0 4 -14
30 -31 58 -29 47 -31 54 -20 88 14 47 14 96 1 121 -5 10 -32 34 -59 54 -65 48
-84 82 -111 196 -13 52 -36 124 -52 160 -83 182 -90 213 -98 390 -7 158 -9
169 -44 259 -37 93 -37 96 -33 205 3 62 15 157 28 214 21 95 22 111 11 190
-20 146 -26 293 -13 340 9 31 30 60 80 110 38 37 73 82 79 100 6 18 14 78 18
134 5 77 13 111 31 147 17 33 29 84 42 181 21 162 42 213 128 319 38 45 76
107 99 160 21 47 52 106 69 131 18 25 34 50 36 56 9 24 101 94 136 103 34 10
88 4 135 -14 10 -4 40 17 87 59 84 78 114 85 136 34 7 -18 25 -44 39 -57 32
-30 60 -21 96 31 26 39 74 75 116 88 38 11 84 12 84 2z m5332 -1653 c78 -16
123 -40 149 -79 39 -59 81 -104 108 -119 14 -7 37 -20 51 -29 14 -9 34 -17 45
-18 11 -1 60 -12 109 -25 74 -19 90 -27 99 -48 7 -14 17 -30 24 -34 7 -4 13
-14 13 -21 0 -7 9 -41 19 -74 13 -40 22 -107 27 -196 4 -81 13 -153 23 -182
15 -43 23 -51 81 -81 36 -18 70 -33 77 -33 14 0 73 -70 73 -87 0 -15 -37 -9
-79 13 -14 8 -34 14 -43 14 -9 0 -19 4 -23 9 -5 9 -94 32 -140 37 -18 2 -81
23 -125 41 -26 11 -72 16 -148 17 -85 1 -95 -7 -86 -73 6 -41 46 -125 65 -136
5 -4 9 -15 9 -25 0 -11 9 -24 20 -30 11 -6 20 -16 20 -23 0 -8 14 -26 30 -42
17 -16 30 -25 30 -21 0 5 6 3 14 -3 12 -10 66 -26 245 -71 18 -5 38 -13 44
-19 6 -6 20 -11 30 -11 38 0 229 -93 244 -119 45 -74 66 -187 40 -210 -14 -11
-32 -4 -136 54 -24 14 -47 22 -51 20 -5 -3 -10 -2 -12 2 -5 12 -93 53 -111 53
-9 0 -20 7 -25 16 -5 9 -13 15 -18 15 -5 -1 -24 4 -41 10 -18 6 -37 8 -43 4
-5 -3 -10 0 -10 8 0 9 -19 19 -52 27 -124 29 -143 14 -133 -104 4 -43 10 -86
15 -95 4 -9 21 -42 36 -75 32 -67 51 -81 114 -91 114 -18 300 -85 343 -124 71
-64 81 -87 52 -125 -8 -11 -15 -34 -15 -52 0 -68 -2 -68 -138 1 -142 72 -229
105 -278 105 -28 0 -38 -7 -60 -40 l-27 -41 16 -59 c10 -33 17 -67 17 -76 0
-37 106 -163 138 -164 7 0 15 -6 18 -13 2 -7 48 -49 102 -93 159 -130 199
-174 207 -228 11 -73 0 -109 -53 -163 -26 -26 -63 -57 -81 -68 -42 -25 -73
-81 -113 -199 -16 -50 -37 -99 -46 -108 -33 -39 -92 -18 -253 90 -107 72 -206
120 -219 105 -10 -12 -33 -93 -40 -145 -5 -37 -3 -48 7 -48 8 0 11 -4 8 -10
-3 -5 -1 -10 4 -10 6 0 11 -11 11 -25 0 -14 8 -29 20 -35 11 -6 20 -20 20 -31
0 -11 7 -22 15 -25 8 -3 17 -22 21 -41 5 -27 2 -39 -14 -55 -39 -39 -164 -34
-290 13 -86 31 -120 26 -173 -25 -52 -50 -79 -66 -128 -77 -40 -9 -116 5 -176
31 -53 23 -158 33 -220 20 -114 -24 -111 -24 -147 3 -30 23 -45 27 -127 29
-87 3 -95 5 -113 29 -11 15 -25 62 -34 118 -8 52 -23 107 -32 124 -9 16 -22
39 -29 50 -24 42 -63 57 -128 48 -53 -7 -61 -6 -76 13 -14 17 -16 36 -12 116
5 88 3 98 -18 129 -23 33 -90 89 -136 112 -29 16 -33 35 -33 180 0 112 -3 133
-24 182 -14 30 -30 58 -35 62 -6 3 -11 13 -11 22 0 9 -8 25 -17 35 -44 49 -46
136 -5 197 10 14 23 39 30 54 16 36 15 130 0 145 -17 17 -13 109 6 154 9 21
16 48 16 61 0 14 7 43 15 66 13 38 13 47 -6 108 -19 60 -20 73 -9 149 7 46 16
84 21 84 5 0 9 9 9 20 0 11 20 58 45 103 l45 84 0 111 0 112 46 90 c25 49 50
90 55 90 5 0 9 8 9 18 0 10 8 29 18 42 18 27 35 81 53 170 12 62 53 140 73
140 8 0 20 7 27 17 8 9 37 31 64 50 28 19 70 48 95 65 29 22 57 33 82 33 28 1
51 12 98 48 59 46 61 47 86 31 14 -9 32 -30 40 -45 32 -63 112 -67 218 -13 53
28 86 38 136 42 67 5 126 28 160 62 17 17 34 20 130 20 60 0 133 -5 162 -11z
m3719 -1162 c-8 -8 -14 -8 -23 1 -9 9 -8 12 5 12 9 0 17 6 18 13 0 9 2 8 6 -1
3 -8 0 -19 -6 -25z"/>
<path d="M7116 5995 c-25 -25 -39 -88 -32 -139 7 -42 10 -46 44 -55 32 -9 176
-18 647 -39 66 -3 278 -5 470 -6 l350 -1 43 24 c50 27 52 51 7 63 -17 4 -96
14 -175 23 -80 9 -156 17 -170 19 -14 2 -64 7 -113 11 -48 4 -89 11 -92 15 -3
4 -24 4 -47 -2 -29 -6 -44 -6 -46 1 -2 6 -16 11 -30 11 -39 0 -218 20 -282 32
-30 5 -73 11 -95 13 -169 14 -299 27 -350 35 -84 14 -111 12 -129 -5z"/>
<path d="M1315 4523 c-16 -3 -32 -8 -35 -11 -3 -4 -27 -18 -55 -32 -337 -169
-495 -494 -495 -1021 0 -192 21 -357 60 -466 12 -32 27 -79 34 -104 16 -56 85
-191 103 -202 7 -4 13 -13 13 -19 0 -32 157 -173 234 -211 49 -24 66 -27 163
-27 128 0 183 8 190 27 3 7 -19 46 -50 86 -116 152 -177 276 -177 357 0 43 -6
52 -88 121 -33 28 -48 52 -69 110 -27 71 -28 82 -28 264 l1 190 33 84 c19 46
56 112 83 147 47 62 49 67 57 152 6 62 19 114 45 182 21 52 44 113 52 134 8
22 33 70 56 108 34 57 39 73 34 103 l-7 35 -62 -1 c-34 -1 -75 -4 -92 -6z"/>
<path d="M1680 4454 c0 -3 17 -27 38 -53 21 -25 51 -66 66 -91 16 -25 37 -57
48 -72 10 -15 18 -31 18 -35 0 -4 15 -39 34 -78 53 -108 68 -146 82 -200 7
-27 19 -77 27 -110 53 -207 52 -198 52 -480 -1 -282 -10 -367 -61 -535 -29
-95 -97 -266 -124 -310 -5 -8 -21 -37 -36 -65 -15 -27 -42 -69 -60 -94 -19
-24 -34 -48 -34 -52 0 -20 30 -7 72 31 145 127 282 395 340 665 26 118 35 404
19 553 -14 128 -52 318 -69 349 -7 12 -12 30 -12 40 0 10 -6 27 -13 38 -8 11
-21 41 -30 68 -9 26 -25 59 -36 74 -12 14 -21 32 -21 39 0 7 -14 33 -30 56
-17 24 -41 59 -54 78 -54 81 -216 219 -216 184z"/>
<path d="M1488 3843 c-34 -4 -38 -7 -38 -32 0 -16 12 -55 26 -87 14 -33 32
-73 40 -90 7 -16 16 -77 20 -135 11 -183 -22 -333 -102 -450 -24 -36 -44 -69
-44 -72 0 -4 17 -14 38 -23 45 -20 178 -20 225 -1 48 21 104 88 122 149 35
117 45 343 21 458 -17 77 -65 184 -101 224 -23 25 -131 69 -160 64 -5 -1 -27
-3 -47 -5z"/>
<path d="M6870 3926 c-104 -25 -145 -59 -156 -128 -10 -62 45 -85 136 -58 19
6 91 15 160 20 178 12 209 20 210 52 0 25 -62 72 -125 94 -89 31 -155 37 -225
20z"/>
<path d="M7155 3591 c-38 -5 -82 -13 -97 -19 -26 -11 -28 -16 -28 -66 0 -50 3
-56 41 -91 23 -20 70 -50 104 -67 60 -28 69 -29 218 -31 144 -2 157 0 184 19
38 29 42 78 10 136 -48 88 -62 107 -82 112 -37 10 -279 15 -350 7z"/>
<path d="M6371 3183 c-19 -2 -43 -10 -55 -18 -22 -13 -75 -30 -88 -27 -5 1 -8
-4 -8 -11 0 -11 -51 -40 -66 -37 -4 1 -11 -5 -16 -14 -5 -9 -14 -16 -19 -16
-37 0 -229 -212 -229 -252 0 -14 -5 -18 -15 -14 -10 4 -17 -3 -21 -22 -4 -15
-11 -32 -16 -38 -4 -6 -15 -36 -24 -65 -9 -30 -20 -58 -24 -64 -5 -5 -11 -28
-15 -50 -4 -22 -13 -62 -20 -90 -12 -43 -22 -117 -41 -289 -3 -25 0 -43 8 -48
9 -5 9 -8 2 -8 -14 0 -16 -97 -3 -122 5 -10 5 -19 0 -23 -10 -5 -8 -22 9 -100
5 -22 12 -71 15 -110 4 -38 13 -77 20 -85 7 -8 15 -35 19 -60 4 -25 13 -54 20
-65 7 -11 20 -42 30 -70 18 -49 68 -137 93 -163 7 -7 13 -17 13 -21 0 -19 163
-171 184 -171 3 0 22 -11 42 -25 35 -24 39 -24 178 -19 184 7 188 8 184 42 -3
25 -15 45 -93 149 -18 23 -43 63 -56 88 -13 25 -29 45 -36 45 -7 0 -14 21 -18
48 -3 26 -10 55 -16 65 -5 9 -6 35 -3 56 6 37 4 40 -27 57 -51 26 -109 89
-109 119 0 15 -6 25 -14 25 -10 0 -17 16 -21 48 -3 26 -9 74 -14 107 -5 38 -5
62 1 66 6 4 5 9 -3 13 -11 5 -11 7 -1 12 14 6 16 31 3 36 -10 4 16 217 28 233
5 5 11 27 15 48 4 21 14 41 22 44 7 3 14 13 14 23 0 9 20 38 45 63 44 45 45
48 45 111 0 37 6 76 15 92 8 16 15 41 15 56 0 33 10 59 20 53 4 -3 11 12 15
33 3 20 13 47 21 59 8 12 23 46 34 76 11 29 34 72 51 96 32 42 33 43 78 36 43
-6 86 -23 153 -61 15 -8 45 -38 67 -67 23 -28 44 -56 49 -62 8 -11 47 -92 79
-165 11 -25 29 -78 41 -117 12 -40 31 -103 42 -140 12 -38 25 -97 30 -133 6
-36 12 -78 16 -95 11 -59 14 -447 3 -467 -6 -11 -15 -63 -20 -116 -6 -53 -14
-101 -19 -107 -4 -5 -16 -43 -26 -82 -9 -40 -20 -73 -24 -73 -4 0 -10 -19 -14
-42 -4 -22 -13 -53 -20 -67 -7 -14 -33 -64 -56 -111 -23 -47 -51 -96 -61 -109
-11 -13 -19 -28 -19 -34 0 -11 -65 -95 -89 -115 -11 -9 -12 -15 -3 -24 8 -8
20 -4 49 17 68 51 118 98 144 136 14 20 32 44 40 53 34 38 44 52 67 100 13 28
41 85 62 126 20 42 40 97 44 123 4 28 12 47 20 47 9 0 15 20 19 58 4 31 14 78
23 104 13 41 15 93 12 371 -2 233 -6 328 -15 338 -7 8 -19 44 -27 79 -38 162
-50 201 -63 196 -9 -4 -13 5 -13 27 0 18 -7 42 -15 54 -22 31 -84 143 -98 176
-6 15 -17 27 -24 27 -7 0 -15 11 -19 25 -3 14 -10 25 -15 25 -6 0 -31 22 -58
49 -26 27 -67 61 -89 76 -23 15 -42 32 -42 36 0 5 -8 9 -17 9 -9 0 -25 8 -35
17 -15 14 -40 18 -116 19 -53 1 -112 0 -131 -3z"/>
<path d="M6505 2510 c-3 -4 -20 -11 -39 -14 -54 -10 -61 -27 -32 -72 14 -22
31 -45 37 -52 6 -7 14 -32 17 -55 2 -23 11 -51 18 -62 10 -14 14 -60 14 -172
0 -84 -4 -153 -8 -153 -4 0 -13 -29 -19 -63 -11 -66 -78 -189 -108 -201 -20
-7 -19 -29 3 -49 20 -18 171 -40 211 -30 14 3 42 19 62 34 20 16 39 26 42 22
4 -3 10 3 13 13 4 10 16 30 26 43 10 13 18 33 18 45 0 12 8 33 18 46 15 22 17
52 16 268 0 139 -5 247 -10 250 -5 4 -15 21 -23 37 -7 17 -19 37 -26 45 -8 8
-29 32 -47 52 -18 20 -46 42 -63 48 -45 17 -115 29 -120 20z"/>
<path d="M11912 9059 c-35 -3 -67 -10 -71 -15 -11 -12 -31 -651 -31 -986 0
-254 1 -268 19 -278 13 -6 191 -11 493 -13 l473 -2 3 653 2 652 -412 -2 c-227
-2 -441 -6 -476 -9z"/>
</g>
</svg>
